<svg xmlns="http://www.w3.org/2000/svg" xmlns:xlink="http://www.w3.org/1999/xlink" width="16" height="16"
     viewBox="0 0 16 16">
    <path fill-rule="evenodd"
          d="M10.6667 4.07331C10.6667 2.56265 9.46742 1.33331 7.9967 1.33331C6.52598 1.33331 5.3367 2.56265 5.3367 4.07331L5.3367 5.33331L4.6667 5.33331C3.56409 5.33331 2.6667 6.23065 2.6667 7.33331L2.6667 12.6633C2.6667 13.766 3.56409 14.6633 4.6667 14.6633L11.3367 14.6633C12.4393 14.6633 13.3367 13.766 13.3367 12.6633L13.3367 7.33331C13.3367 6.23065 12.4393 5.33331 11.3367 5.33331L10.6667 5.33331L10.6667 4.07331ZM9.3367 4.07661C9.3367 3.30061 8.73204 2.66661 7.9967 2.66661C7.26137 2.66661 6.6667 3.30061 6.6667 4.07661L6.6667 5.33661L9.3367 5.33661L9.3367 4.07661ZM11.33 6.66661L4.67 6.66661C4.302 6.66661 4 6.96861 4 7.33661L4 12.6666C4 13.0346 4.302 13.3366 4.67 13.3366L11.33 13.3366C11.698 13.3366 12 13.0346 12 12.6666L12 7.33661C12 6.96861 11.698 6.66661 11.33 6.66661ZM10 10C10 8.89733 9.10268 8.00001 8 8.00001C6.89732 8.00001 6 8.89733 6 10C6 11.1027 6.89732 12 8 12C9.10268 12 10 11.1027 10 10ZM8.6633 10.0033C8.6633 9.63531 8.3713 9.33331 8.0033 9.33331C7.6353 9.33331 7.3333 9.63531 7.3333 10.0033C7.3333 10.3713 7.6353 10.6633 8.0033 10.6633C8.3713 10.6633 8.6633 10.3713 8.6633 10.0033Z">
    </path>
</svg>
