<svg xmlns="http://www.w3.org/2000/svg" xmlns:xlink="http://www.w3.org/1999/xlink" width="16" height="16"
     viewBox="0 0 16 16" >
    <path d="M8.00008 2.66666C7.63208 2.66666 7.33341 2.96468 7.33341 3.33332L7.33341 7.33332L3.33341 7.33332C2.96541 7.33332 2.66675 7.63135 2.66675 7.99999C2.66675 8.36863 2.96541 8.66666 3.33341 8.66666L7.33341 8.66666L7.33341 12.6667C7.33341 13.0353 7.63208 13.3333 8.00008 13.3333C8.36808 13.3333 8.66675 13.0353 8.66675 12.6667L8.66675 8.66666L12.6667 8.66666C13.0347 8.66666 13.3334 8.36863 13.3334 7.99999C13.3334 7.63135 13.0347 7.33332 12.6667 7.33332L12.6667 7.33332L8.66675 7.33332L8.66675 3.33332C8.66675 2.96468 8.36808 2.66666 8.00008 2.66666Z"
          >
    </path>
</svg>
