<svg xmlns="http://www.w3.org/2000/svg" xmlns:xlink="http://www.w3.org/1999/xlink" width="24" height="24"
     viewBox="0 0 24 24" >
    <path d="M12.1842 2.99982C7.12023 2.99982 3.00018 7.03686 3.00018 11.9998C3.00018 16.9628 7.12023 20.9998 12.1842 20.9998C16.2261 20.9998 19.7502 18.4607 20.9531 14.6818C21.1202 14.1559 20.8291 13.5939 20.3032 13.4258C19.7772 13.2587 20.3032 13.4258 20.3032 13.4258C19.7772 13.2587 19.2152 13.5498 19.0471 14.0758C18.1102 17.0218 15.3522 18.9998 12.1842 18.9998C8.2222 18.9998 5.00018 15.8597 5.00018 11.9998C5.00018 8.1408 8.2222 4.9998 12.1842 4.9998C13.9122 4.9998 15.5421 5.6019 16.8291 6.66984L14.6632 6.3129C14.1131 6.21282 13.6032 6.5919 13.5132 7.13586C13.4232 7.6809 13.7922 8.19588 14.3372 8.2848L18.5832 8.9868C18.6381 8.9958 18.6941 8.99976 18.7472 8.99976C18.8662 8.99976 18.9821 8.97888 19.0901 8.93874C19.1272 8.92488 19.1573 8.89878 19.1933 8.87988C19.2592 8.84586 19.3283 8.8158 19.3852 8.76774C19.4212 8.73876 19.4442 8.69682 19.4752 8.6628C19.5221 8.61384 19.5722 8.56686 19.6071 8.50674C19.6321 8.4639 19.6422 8.41278 19.6611 8.3649C19.6852 8.30586 19.7173 8.25078 19.7291 8.1858L20.4832 4.18584C20.5852 3.64278 20.2281 3.1188 19.6852 3.01782C19.1441 2.9199 18.6192 3.27288 18.5172 3.81486L18.2452 5.25576C16.5811 3.81486 14.4483 2.99982 12.1842 2.99982Z">
    </path>
</svg>
