<svg xmlns="http://www.w3.org/2000/svg" xmlns:xlink="http://www.w3.org/1999/xlink" width="18.003219604492188"
     height="18" viewBox="0 0 18.003219604492188 18">
    <path fill-rule="evenodd"
          d="M16 8C16 3.5891 12.411 0 8 0C3.58904 0 0 3.5891 0 8C0 12.4111 3.58904 16 8 16C9.84593 16 11.546 15.363 12.9 14.31L16.29 17.71C16.4851 17.9051 16.744 18 17 18C17.256 18 17.5151 17.9051 17.71 17.71C18.101 17.319 18.101 16.681 17.71 16.29L14.31 12.9C15.363 11.546 16 9.84608 16 8ZM14 8C14 4.691 11.309 2 8 2C4.691 2 2 4.691 2 8C2 11.309 4.691 14 8 14C11.309 14 14 11.309 14 8Z">
    </path>
</svg>
