<svg xmlns="http://www.w3.org/2000/svg" xmlns:xlink="http://www.w3.org/1999/xlink" width="18.003173828125"
     height="18.002609252929688" viewBox="0 0 18.003173828125 18.002609252929688" >
    <path fill-rule="evenodd"
          d="M17.712 0.292609C17.4439 0.0245823 17.042 -0.0692539 16.682 0.0526093L0.681953 5.39261C0.253016 5.53571 -0.0261267 5.94062 0.00195312 6.39261C0.0289529 6.8446 0.357896 7.22261 0.801953 7.31261L9.02195 8.98261L10.692 17.2026C10.7829 17.6456 11.16 17.9756 11.612 18.0026L11.672 18.0026C12.1 18.0026 12.475 17.7325 12.612 17.3226L17.952 1.32261C18.0709 0.9626 17.9798 0.560636 17.712 0.292609ZM11.908 13.134L15.418 2.58401L4.86795 6.10401L10.068 7.16401C10.462 7.24295 10.768 7.54996 10.848 7.94401L11.908 13.134Z">
    </path>
</svg>
