<svg xmlns="http://www.w3.org/2000/svg" xmlns:xlink="http://www.w3.org/1999/xlink" width="24" height="24" viewBox="0 0 24 24" >
<path   fill-rule="evenodd"  d="M10.6582 2.00012L13.2082 2.00012C13.8103 2.00012 14.3802 2.23912 14.8082 2.67012C15.2513 3.11512 15.4882 3.71512 15.4882 4.35012L15.4882 4.63012C15.4882 5.19612 15.7414 5.73212 16.1782 6.06012L16.2882 6.14012C16.7473 6.48512 17.3412 6.58012 17.8782 6.40012L18.2182 6.29012C18.7953 6.09812 19.4072 6.14312 19.9482 6.42012C20.5033 6.70412 20.9202 7.19512 21.1082 7.80012L21.8882 10.3201C22.2681 11.5381 21.6153 12.8531 20.4282 13.2501L20.2282 13.3201C19.6522 13.5141 19.199 13.9881 19.0182 14.6001C18.8522 15.1611 18.9494 15.7761 19.2782 16.2501L19.5382 16.6301C20.2523 17.6621 20.0223 19.1111 19.0282 19.8601L16.9682 21.4101C16.4732 21.7841 15.8671 21.9371 15.2582 21.8401C14.6442 21.7411 14.1073 21.3981 13.7482 20.8801L13.6282 20.7101C13.2782 20.2061 12.7151 19.9071 12.1282 19.9401C11.5402 19.9561 11.0303 20.2281 10.6982 20.7001L10.4682 21.0301C10.1062 21.5431 9.56907 21.8741 8.95823 21.9701C8.84122 21.9881 8.73324 22.0001 8.61823 22.0001C8.1322 22.0001 7.65626 21.8431 7.25823 21.5401L5.18823 19.9701C4.19817 19.2201 3.97818 17.7731 4.69823 16.7501C5.07225 16.2201 5.14824 15.5361 4.92823 14.8901L4.86823 14.7301C4.68522 14.1481 4.27526 13.6871 3.75823 13.5101L3.58823 13.4601C2.37035 13.0431 1.72121 11.7521 2.10823 10.5201L2.92823 7.92012C3.11324 7.33312 3.5082 6.86312 4.04823 6.59012C4.57626 6.32412 5.17019 6.27912 5.72823 6.47012C6.32727 6.67412 6.9952 6.57012 7.50823 6.18012L7.63823 6.08012C8.09426 5.73212 8.36823 5.16712 8.36823 4.57012L8.36823 4.33012C8.36823 3.04612 9.40535 2.00012 10.6582 2.00012ZM13.2005 4.00012C13.2866 4.00012 13.3545 4.04316 13.3905 4.08012C13.4284 4.1182 13.4905 4.20701 13.4905 4.34012L13.4905 4.62012C13.4905 5.81605 14.0345 6.946 14.9705 7.65012L15.0805 7.73012C16.0655 8.47104 17.3475 8.68714 18.5105 8.30012L18.8505 8.19012C18.9126 8.16916 18.9805 8.16908 19.0405 8.20012C19.0824 8.22204 19.1634 8.27205 19.2005 8.39012L19.9805 10.9101C20.0375 11.0941 19.9515 11.2972 19.7905 11.3501L19.5905 11.4201C18.3955 11.8201 17.4666 12.7942 17.1005 14.0301C16.7636 15.1651 16.9606 16.4222 17.6305 17.3901L17.8905 17.7701C17.9976 17.9252 17.9645 18.1521 17.8205 18.2601L15.7605 19.8201C15.6946 19.8714 15.6269 19.8707 15.5822 19.8702L15.5705 19.8701C15.5195 19.8701 15.4496 19.8341 15.3905 19.7501L15.2705 19.5801C14.5345 18.517 13.3565 17.9131 12.0405 17.9401C10.8685 17.9742 9.75948 18.5732 9.07053 19.5501L8.84053 19.8801C8.78149 19.9641 8.70061 20.0001 8.65053 20.0001L8.64056 20.0002C8.59727 20.0005 8.53829 20.001 8.47053 19.9501L6.39053 18.3701C6.25357 18.2661 6.23061 18.0441 6.36053 17.8601C7.0746 16.8463 7.24644 15.496 6.82053 14.2401L6.78053 14.1201C6.40838 12.936 5.51651 12.0031 4.40053 11.6201L4.24053 11.5701C4.05749 11.5072 3.96149 11.3091 4.02053 11.1201L4.83053 8.52012C4.85853 8.42909 4.91853 8.38612 4.95053 8.37012C4.99245 8.34804 5.04349 8.34412 5.09053 8.36012C6.32251 8.7801 7.67751 8.56319 8.72053 7.77012L8.85053 7.67012C9.79852 6.94713 10.3705 5.79509 10.3705 4.58012L10.3705 4.33012C10.3705 4.14613 10.5045 4.00012 10.6605 4.00012L13.2005 4.00012ZM12 8.50002C13.93 8.50002 15.5 10.0701 15.5 12C15.5 13.93 13.93 15.5 12 15.5C10.0701 15.5 8.50003 13.93 8.50003 12C8.50003 10.0701 10.0701 8.50002 12 8.50002ZM12 10.5C12.827 10.5 13.5 11.173 13.5 12C13.5 12.827 12.827 13.5 12 13.5C11.173 13.5 10.5 12.827 10.5 12C10.5 11.173 11.173 10.5 12 10.5Z">
</path>
</svg>
