<svg xmlns="http://www.w3.org/2000/svg" xmlns:xlink="http://www.w3.org/1999/xlink" width="20" height="20"
     viewBox="0 0 20 20">
    <path fill-rule="evenodd"
          d="M10.7466 2.09664C10.465 1.52987 9.53828 1.52987 9.25663 2.09664L7.12663 6.36664L2.37663 7.05664C2.06247 7.10245 1.80329 7.31414 1.70663 7.61664C1.60913 7.91913 1.68747 8.25581 1.91663 8.47664L5.35663 11.7966L4.54663 16.4866C4.4933 16.7991 4.61997 17.1201 4.87663 17.3066C5.13078 17.4933 5.46497 17.5134 5.74663 17.3666L9.99663 15.1466L14.2466 17.3666C14.3675 17.43 14.5041 17.4666 14.6366 17.4666C14.81 17.4666 14.9825 17.4134 15.1266 17.3066C15.3833 17.1201 15.51 16.7991 15.4566 16.4866L14.6466 11.7966L18.0766 8.47664C18.3058 8.25581 18.3941 7.91913 18.2966 7.61664C18.2 7.31414 17.9308 7.10245 17.6166 7.05664L12.8666 6.36664L10.7466 2.09664ZM11.5688 7.49414L9.99883 4.33414L8.42883 7.49414C8.30717 7.7392 8.06973 7.91491 7.79883 7.95414L4.29883 8.45414L6.82883 10.9041C7.0271 11.0966 7.11637 11.3725 7.06883 11.6441L6.46883 15.1141L9.61883 13.4641C9.73969 13.4017 9.86634 13.3741 9.99883 13.3741C10.1313 13.3741 10.268 13.4017 10.3888 13.4641L13.5288 15.1141L12.9288 11.6441C12.8813 11.3725 12.9706 11.0966 13.1688 10.9041L15.6988 8.45414L12.1988 7.95414C11.9279 7.91491 11.6905 7.7392 11.5688 7.49414Z">
    </path>
</svg>
